<?xml version="1.0" encoding="UTF-8"?>
<svg id="Layer_1" data-name="Layer 1" xmlns="http://www.w3.org/2000/svg" viewBox="0 0 994.64 369.06">
  <defs>
    <style>
      .cls-1 {
        fill: #f9dc5c;
        stroke: #161f33;
      }

      .cls-1, .cls-2 {
        stroke-miterlimit: 10;
        stroke-width: 2px;
      }

      .cls-3 {
        fill: #f4fffd;
      }

      .cls-2 {
        fill: #ff5275;
        stroke: #151f34;
      }
    </style>
  </defs>
  <path class="cls-3" d="M484.01,0l20.87,92.37c2.98,13.19,18.11,19.46,29.55,12.24l80.07-50.56-50.56,80.07c-7.22,11.43-.95,26.57,12.24,29.55l92.37,20.87-92.37,20.87c-13.19,2.98-19.46,18.11-12.24,29.55l50.56,80.07-80.07-50.56c-11.43-7.22-26.57-.95-29.55,12.24l-20.87,92.37-20.87-92.37c-2.98-13.19-18.11-19.46-29.55-12.24l-80.07,50.56,50.56-80.07c7.22-11.43.95-26.57-12.24-29.55l-92.37-20.87,92.37-20.87c13.19-2.98,19.46-18.11,12.24-29.55l-50.56-80.07,80.07,50.56c11.43,7.22,26.57.95,29.55-12.24L484.01,0Z"/>
  <g>
    <path class="cls-3" d="M86.89,255.88H22.09c.17-4.8.28-9.62.33-14.47.04-4.84.11-10.08.2-15.71.09-5.63.13-11.93.13-18.92,0-10.39-.04-19.4-.13-27.03-.09-7.64-.26-14.99-.52-22.06h86.66c7.51,0,14.14.46,19.9,1.37s10.6,2.68,14.53,5.3c3.93,2.62,6.92,6.44,8.97,11.45,2.05,5.02,3.08,11.59,3.08,19.7,0,6.46-.46,12.04-1.38,16.76s-2.58,8.71-4.97,11.98c-2.4,3.27-5.78,5.89-10.15,7.85-4.37,1.96-9.97,3.4-16.82,4.32-6.85.92-15.25,1.37-25.2,1.37h-1.77c-.83,0-1.81-.04-2.95-.13-1.13-.09-2.31-.13-3.53-.13h-7.2l.39-25.92c.61,0,1.13-.02,1.57-.07.44-.04.79-.04,1.05,0,.26.05.54.09.85.13.3.04.63.07.98.07,1.66,0,3.03-.22,4.12-.65,1.09-.44,1.94-1.11,2.55-2.03.61-.92,1.07-2.25,1.38-3.99.3-1.75.46-3.97.46-6.68,0-2.97-.13-5.32-.39-7.07-.26-1.75-.72-3.12-1.37-4.12-.66-1-1.42-1.64-2.29-1.9-.87-.26-2.09-.39-3.67-.39h-1.31c-.52,0-1.14-.02-1.83-.07-.7-.04-1.37-.04-2.03,0-.65.04-1.29.09-1.9.13-.61.05-1.18.15-1.7.33l6.15-7.07c0,8.38.04,16.34.13,23.89.09,7.55.22,14.62.39,21.21.17,6.59.41,12.59.72,18,.3,5.41.76,10.26,1.37,14.53Z"/>
    <path class="cls-3" d="M305.91,203.91c0,7.85-.77,14.71-2.29,20.55-1.53,5.85-3.99,10.91-7.4,15.19-3.4,4.28-7.97,7.72-13.68,10.34-5.72,2.62-12.83,4.58-21.34,5.89-8.51,1.31-18.7,1.96-30.57,1.96s-21.97-.65-30.31-1.96c-8.34-1.31-15.3-3.27-20.88-5.89-5.59-2.62-9.99-6.06-13.22-10.34-3.23-4.28-5.52-9.34-6.87-15.19-1.35-5.85-2.03-12.7-2.03-20.55s.76-14.09,2.29-19.51c1.53-5.41,4.06-9.99,7.59-13.75,3.53-3.75,8.14-6.7,13.81-8.84,5.67-2.14,12.63-3.64,20.88-4.52,8.25-.87,17.91-1.31,29-1.31,13.7,0,25.33.72,34.89,2.16,9.56,1.44,17.3,3.95,23.24,7.53,5.93,3.58,10.23,8.49,12.9,14.73,2.66,6.24,3.99,14.07,3.99,23.5ZM231.02,221.06c.79,0,1.57-.24,2.36-.72.79-.48,1.37-1.37,1.77-2.68s.67-3.08.85-5.3c.17-2.22.26-5.13.26-8.71,0-3.31-.09-6-.26-8.05-.18-2.05-.46-3.64-.85-4.78-.39-1.13-.98-1.92-1.77-2.36-.79-.44-1.57-.66-2.36-.66-1.05,0-1.92.22-2.62.66-.7.44-1.24,1.22-1.64,2.36-.39,1.14-.68,2.73-.85,4.78-.18,2.05-.26,4.74-.26,8.05,0,3.58.09,6.48.26,8.71.17,2.23.46,3.99.85,5.3s.94,2.21,1.64,2.68c.7.48,1.57.72,2.62.72Z"/>
    <path class="cls-3" d="M374.5,255.88h-64.8c.17-4.8.28-9.62.33-14.47.04-4.84.11-10.08.2-15.71.09-5.63.13-11.93.13-18.92,0-10.39-.04-19.4-.13-27.03-.09-7.64-.26-14.99-.52-22.06h86.66c7.51,0,14.14.46,19.9,1.37s10.6,2.68,14.53,5.3c3.93,2.62,6.92,6.44,8.97,11.45,2.05,5.02,3.08,11.59,3.08,19.7,0,6.46-.46,12.04-1.38,16.76s-2.58,8.71-4.97,11.98c-2.4,3.27-5.78,5.89-10.15,7.85-4.37,1.96-9.97,3.4-16.82,4.32-6.85.92-15.25,1.37-25.2,1.37h-1.77c-.83,0-1.81-.04-2.95-.13-1.13-.09-2.31-.13-3.53-.13h-7.2l.39-25.92c.61,0,1.13-.02,1.57-.07.44-.04.79-.04,1.05,0,.26.05.54.09.85.13.3.04.63.07.98.07,1.66,0,3.03-.22,4.12-.65,1.09-.44,1.94-1.11,2.55-2.03.61-.92,1.07-2.25,1.38-3.99.3-1.75.46-3.97.46-6.68,0-2.97-.13-5.32-.39-7.07-.26-1.75-.72-3.12-1.37-4.12-.66-1-1.42-1.64-2.29-1.9-.87-.26-2.09-.39-3.67-.39h-1.31c-.52,0-1.14-.02-1.83-.07-.7-.04-1.37-.04-2.03,0-.65.04-1.29.09-1.9.13-.61.05-1.18.15-1.7.33l6.15-7.07c0,8.38.04,16.34.13,23.89.09,7.55.22,14.62.39,21.21.17,6.59.41,12.59.72,18,.3,5.41.76,10.26,1.37,14.53Z"/>
    <path class="cls-3" d="M511.44,255.88h-64.8c.17-4.8.28-9.62.33-14.47.04-4.84.11-10.08.2-15.71.09-5.63.13-11.93.13-18.92,0-10.39-.04-19.4-.13-27.03-.09-7.64-.26-14.99-.52-22.06h86.66c7.51,0,14.14.46,19.9,1.37s10.6,2.68,14.53,5.3c3.93,2.62,6.92,6.44,8.97,11.45,2.05,5.02,3.08,11.59,3.08,19.7,0,6.46-.46,12.04-1.38,16.76s-2.58,8.71-4.97,11.98c-2.4,3.27-5.78,5.89-10.15,7.85-4.37,1.96-9.97,3.4-16.82,4.32-6.85.92-15.25,1.37-25.2,1.37h-1.77c-.83,0-1.81-.04-2.95-.13-1.13-.09-2.31-.13-3.53-.13h-7.2l.39-25.92c.61,0,1.13-.02,1.57-.07.44-.04.79-.04,1.05,0,.26.05.54.09.85.13.3.04.63.07.98.07,1.66,0,3.03-.22,4.12-.65,1.09-.44,1.94-1.11,2.55-2.03.61-.92,1.07-2.25,1.38-3.99.3-1.75.46-3.97.46-6.68,0-2.97-.13-5.32-.39-7.07-.26-1.75-.72-3.12-1.37-4.12-.66-1-1.42-1.64-2.29-1.9-.87-.26-2.09-.39-3.67-.39h-1.31c-.52,0-1.14-.02-1.83-.07-.7-.04-1.37-.04-2.03,0-.65.04-1.29.09-1.9.13-.61.05-1.18.15-1.7.33l6.15-7.07c0,8.38.04,16.34.13,23.89.09,7.55.22,14.62.39,21.21.17,6.59.41,12.59.72,18,.3,5.41.76,10.26,1.37,14.53Z"/>
    <path class="cls-3" d="M649.95,157.69h54.72c-.79,2.18-1.81,5.28-3.08,9.3-1.27,4.02-2.66,8.44-4.19,13.29-1.53,4.84-3.12,9.82-4.78,14.92-1.66,5.11-3.19,9.91-4.58,14.4-1.4,4.5-2.62,8.29-3.67,11.39-1.05,3.1-1.83,5.13-2.36,6.09-6.37,0-12.87-.17-19.51-.52-6.63-.35-13.53-.52-20.68-.52-4.19,0-8.47.07-12.83.2-4.37.13-8.53.26-12.5.39-3.97.13-7.42.28-10.34.46-2.93.18-4.95.26-6.09.26-.44-1.13-1.14-3.27-2.09-6.42-.96-3.14-2.16-6.96-3.6-11.45-1.44-4.49-3.01-9.27-4.71-14.33-1.7-5.06-3.36-10.04-4.97-14.92-1.62-4.89-3.08-9.31-4.39-13.29-1.31-3.97-2.31-7.05-3.01-9.23h63.76v7.27c0,1.62.07,3.38.2,5.3.13,1.92.24,3.93.33,6.02.09,2.09.22,4.19.39,6.28.35,3.84.74,7.77,1.18,11.78.44,4.01.92,7.83,1.44,11.45.52,3.62.92,6.57,1.18,8.84l-4.97-7.99h8.77l-4.84,8.25c.35-2.36.72-5.35,1.11-8.97.39-3.62.87-7.46,1.44-11.52.57-4.06.98-8.01,1.24-11.85.26-2.09.46-4.21.59-6.35.13-2.14.26-4.14.39-6.02.13-1.88.24-3.62.33-5.24.09-1.61.13-3.03.13-4.25v-3.01ZM599.15,217.13h83.65c0,4.8.02,9.3.07,13.48.04,4.19.13,7.99.26,11.39.13,3.4.24,6.31.33,8.71.09,2.4.13,4.17.13,5.3-3.75-.09-8.14-.15-13.16-.2-5.02-.04-10.1-.07-15.25-.07h-28.74c-5.19,0-10.26.02-15.19.07-4.93.04-9.32.11-13.16.2.17-1.13.3-2.9.39-5.3.09-2.4.17-5.26.26-8.57.09-3.32.17-7.11.26-11.39.09-4.27.13-8.81.13-13.62Z"/>
    <path class="cls-3" d="M776.93,193.3v-3.53c0-1.83-.15-3.34-.46-4.52-.31-1.18-.74-2.03-1.31-2.55-.57-.52-1.37-.79-2.42-.79-1.22,0-2.23.42-3.01,1.24-.79.83-1.4,2.18-1.83,4.06-.44,1.88-.72,4.34-.85,7.4-.13,3.06-.2,6.85-.2,11.39s.11,8.03.33,11c.22,2.97.59,5.32,1.11,7.07.52,1.75,1.26,3.03,2.23,3.86.96.83,2.27,1.24,3.93,1.24,1.57,0,2.84-.48,3.8-1.44.96-.96,1.7-2.53,2.23-4.71.52-2.18.79-5.13.79-8.84s-.04-8.31-.13-13.81h5.56c1.88,0,3.77-.07,5.69-.2,1.92-.13,3.95-.24,6.09-.33,2.14-.09,4.3-.09,6.48,0,4.71,0,9.36-.07,13.94-.2,4.58-.13,8.92-.28,13.03-.46,4.1-.17,7.72-.3,10.87-.39.43,7.94.43,14.88,0,20.81-.44,5.94-1.53,11.11-3.27,15.51-1.75,4.41-4.28,8.07-7.59,11-3.32,2.92-7.68,5.28-13.09,7.07-5.41,1.79-11.91,3.05-19.51,3.8-7.59.74-16.54,1.11-26.84,1.11-12.74,0-23.72-.77-32.92-2.29-9.21-1.53-16.84-4.21-22.91-8.05-6.07-3.84-10.56-9.21-13.48-16.1-2.93-6.89-4.39-15.66-4.39-26.31,0-8.29.89-15.34,2.68-21.14,1.79-5.8,4.56-10.58,8.31-14.33,3.75-3.75,8.55-6.7,14.4-8.84,5.85-2.14,12.85-3.6,21.01-4.39,8.16-.79,17.43-1.18,27.82-1.18,11.69,0,21.6.39,29.72,1.18,8.12.79,14.81,2.01,20.1,3.67,5.28,1.66,9.4,3.78,12.37,6.35,2.97,2.58,5.04,5.59,6.22,9.03,1.18,3.45,1.72,7.4,1.64,11.85,0,.96-.04,1.94-.13,2.95-.09,1-.13,1.94-.13,2.81-5.5-.17-11.3-.3-17.41-.39-6.11-.09-12.13-.13-18.07-.13-5.59,0-10.98.05-16.17.13-5.19.09-9.93.22-14.2.39ZM806,199.19h11c3.93,0,8.07-.02,12.44-.07,4.36-.04,8.81-.15,13.35-.33l-34.3,22.91h-16.43c-2.05,0-4.1.05-6.15.13-2.05.09-4.12.11-6.22.07-2.09-.04-4.1.02-6.02.2,0-.87.02-2.22.07-4.06.04-1.83.07-3.69.07-5.56v-9.3c0-1.7-.04-3.12-.13-4.25,5.85.18,11.61.26,17.28.26h15.06Z"/>
    <path class="cls-3" d="M994.64,203.91c0,7.85-.77,14.71-2.29,20.55-1.53,5.85-3.99,10.91-7.4,15.19-3.4,4.28-7.97,7.72-13.68,10.34-5.72,2.62-12.83,4.58-21.34,5.89-8.51,1.31-18.7,1.96-30.57,1.96s-21.97-.65-30.31-1.96c-8.34-1.31-15.3-3.27-20.88-5.89-5.59-2.62-9.99-6.06-13.22-10.34-3.23-4.28-5.52-9.34-6.87-15.19-1.35-5.85-2.03-12.7-2.03-20.55s.76-14.09,2.29-19.51c1.53-5.41,4.06-9.99,7.59-13.75,3.53-3.75,8.14-6.7,13.81-8.84,5.67-2.14,12.63-3.64,20.88-4.52,8.25-.87,17.91-1.31,29-1.31,13.7,0,25.33.72,34.89,2.16,9.56,1.44,17.3,3.95,23.24,7.53,5.93,3.58,10.23,8.49,12.9,14.73,2.66,6.24,3.99,14.07,3.99,23.5ZM919.76,221.06c.79,0,1.57-.24,2.36-.72.79-.48,1.37-1.37,1.77-2.68s.67-3.08.85-5.3c.17-2.22.26-5.13.26-8.71,0-3.31-.09-6-.26-8.05-.18-2.05-.46-3.64-.85-4.78-.39-1.13-.98-1.92-1.77-2.36-.79-.44-1.57-.66-2.36-.66-1.05,0-1.92.22-2.62.66-.7.44-1.24,1.22-1.64,2.36-.39,1.14-.68,2.73-.85,4.78-.18,2.05-.26,4.74-.26,8.05,0,3.58.09,6.48.26,8.71.17,2.23.46,3.99.85,5.3s.94,2.21,1.64,2.68c.7.48,1.57.72,2.62.72Z"/>
  </g>
  <g>
    <path class="cls-1" d="M75.52,247.89H10.72c.17-4.8.28-9.62.33-14.47.04-4.84.11-10.08.2-15.71.09-5.63.13-11.93.13-18.92,0-10.39-.04-19.4-.13-27.03-.09-7.64-.26-14.99-.52-22.06h86.66c7.51,0,14.14.46,19.9,1.37s10.6,2.68,14.53,5.3c3.93,2.62,6.92,6.44,8.97,11.45,2.05,5.02,3.08,11.59,3.08,19.7,0,6.46-.46,12.04-1.38,16.76s-2.58,8.71-4.97,11.98c-2.4,3.27-5.78,5.89-10.15,7.85-4.37,1.96-9.97,3.4-16.82,4.32-6.85.92-15.25,1.37-25.2,1.37h-1.77c-.83,0-1.81-.04-2.95-.13-1.13-.09-2.31-.13-3.53-.13h-7.2l.39-25.92c.61,0,1.13-.02,1.57-.07.44-.04.79-.04,1.05,0,.26.05.54.09.85.13.3.04.63.07.98.07,1.66,0,3.03-.22,4.12-.65,1.09-.44,1.94-1.11,2.55-2.03.61-.92,1.07-2.25,1.38-3.99.3-1.75.46-3.97.46-6.68,0-2.97-.13-5.32-.39-7.07-.26-1.75-.72-3.12-1.37-4.12-.66-1-1.42-1.64-2.29-1.9-.87-.26-2.09-.39-3.67-.39h-1.31c-.52,0-1.14-.02-1.83-.07-.7-.04-1.37-.04-2.03,0-.65.04-1.29.09-1.9.13-.61.05-1.18.15-1.7.33l6.15-7.07c0,8.38.04,16.34.13,23.89.09,7.55.22,14.62.39,21.21.17,6.59.41,12.59.72,18,.3,5.41.76,10.26,1.37,14.53Z"/>
    <path class="cls-1" d="M294.54,195.92c0,7.85-.77,14.71-2.29,20.55-1.53,5.85-3.99,10.91-7.4,15.19-3.4,4.28-7.97,7.72-13.68,10.34-5.72,2.62-12.83,4.58-21.34,5.89-8.51,1.31-18.7,1.96-30.57,1.96s-21.97-.65-30.31-1.96c-8.34-1.31-15.3-3.27-20.88-5.89-5.59-2.62-9.99-6.06-13.22-10.34-3.23-4.28-5.52-9.34-6.87-15.19-1.35-5.85-2.03-12.7-2.03-20.55s.76-14.09,2.29-19.51c1.53-5.41,4.06-9.99,7.59-13.75,3.53-3.75,8.14-6.7,13.81-8.84,5.67-2.14,12.63-3.64,20.88-4.52,8.25-.87,17.91-1.31,29-1.31,13.7,0,25.33.72,34.89,2.16,9.56,1.44,17.3,3.95,23.24,7.53,5.93,3.58,10.23,8.49,12.9,14.73,2.66,6.24,3.99,14.07,3.99,23.5ZM219.66,213.07c.79,0,1.57-.24,2.36-.72.79-.48,1.37-1.37,1.77-2.68s.67-3.08.85-5.3c.17-2.22.26-5.13.26-8.71,0-3.31-.09-6-.26-8.05-.18-2.05-.46-3.64-.85-4.78-.39-1.13-.98-1.92-1.77-2.36-.79-.44-1.57-.66-2.36-.66-1.05,0-1.92.22-2.62.66-.7.44-1.24,1.22-1.64,2.36-.39,1.14-.68,2.73-.85,4.78-.18,2.05-.26,4.74-.26,8.05,0,3.58.09,6.48.26,8.71.17,2.23.46,3.99.85,5.3s.94,2.21,1.64,2.68c.7.48,1.57.72,2.62.72Z"/>
    <path class="cls-1" d="M363.14,247.89h-64.8c.17-4.8.28-9.62.33-14.47.04-4.84.11-10.08.2-15.71.09-5.63.13-11.93.13-18.92,0-10.39-.04-19.4-.13-27.03-.09-7.64-.26-14.99-.52-22.06h86.66c7.51,0,14.14.46,19.9,1.37s10.6,2.68,14.53,5.3c3.93,2.62,6.92,6.44,8.97,11.45,2.05,5.02,3.08,11.59,3.08,19.7,0,6.46-.46,12.04-1.38,16.76s-2.58,8.71-4.97,11.98c-2.4,3.27-5.78,5.89-10.15,7.85-4.37,1.96-9.97,3.4-16.82,4.32-6.85.92-15.25,1.37-25.2,1.37h-1.77c-.83,0-1.81-.04-2.95-.13-1.13-.09-2.31-.13-3.53-.13h-7.2l.39-25.92c.61,0,1.13-.02,1.57-.07.44-.04.79-.04,1.05,0,.26.05.54.09.85.13.3.04.63.07.98.07,1.66,0,3.03-.22,4.12-.65,1.09-.44,1.94-1.11,2.55-2.03.61-.92,1.07-2.25,1.38-3.99.3-1.75.46-3.97.46-6.68,0-2.97-.13-5.32-.39-7.07-.26-1.75-.72-3.12-1.37-4.12-.66-1-1.42-1.64-2.29-1.9-.87-.26-2.09-.39-3.67-.39h-1.31c-.52,0-1.14-.02-1.83-.07-.7-.04-1.37-.04-2.03,0-.65.04-1.29.09-1.9.13-.61.05-1.18.15-1.7.33l6.15-7.07c0,8.38.04,16.34.13,23.89.09,7.55.22,14.62.39,21.21.17,6.59.41,12.59.72,18,.3,5.41.76,10.26,1.37,14.53Z"/>
    <path class="cls-1" d="M500.07,247.89h-64.8c.17-4.8.28-9.62.33-14.47.04-4.84.11-10.08.2-15.71.09-5.63.13-11.93.13-18.92,0-10.39-.04-19.4-.13-27.03-.09-7.64-.26-14.99-.52-22.06h86.66c7.51,0,14.14.46,19.9,1.37s10.6,2.68,14.53,5.3c3.93,2.62,6.92,6.44,8.97,11.45,2.05,5.02,3.08,11.59,3.08,19.7,0,6.46-.46,12.04-1.38,16.76s-2.58,8.71-4.97,11.98c-2.4,3.27-5.78,5.89-10.15,7.85-4.37,1.96-9.97,3.4-16.82,4.32-6.85.92-15.25,1.37-25.2,1.37h-1.77c-.83,0-1.81-.04-2.95-.13-1.13-.09-2.31-.13-3.53-.13h-7.2l.39-25.92c.61,0,1.13-.02,1.57-.07.44-.04.79-.04,1.05,0,.26.05.54.09.85.13.3.04.63.07.98.07,1.66,0,3.03-.22,4.12-.65,1.09-.44,1.94-1.11,2.55-2.03.61-.92,1.07-2.25,1.38-3.99.3-1.75.46-3.97.46-6.68,0-2.97-.13-5.32-.39-7.07-.26-1.75-.72-3.12-1.37-4.12-.66-1-1.42-1.64-2.29-1.9-.87-.26-2.09-.39-3.67-.39h-1.31c-.52,0-1.14-.02-1.83-.07-.7-.04-1.37-.04-2.03,0-.65.04-1.29.09-1.9.13-.61.05-1.18.15-1.7.33l6.15-7.07c0,8.38.04,16.34.13,23.89.09,7.55.22,14.62.39,21.21.17,6.59.41,12.59.72,18,.3,5.41.76,10.26,1.37,14.53Z"/>
    <path class="cls-1" d="M638.58,149.71h54.72c-.79,2.18-1.81,5.28-3.08,9.3-1.27,4.02-2.66,8.44-4.19,13.29-1.53,4.84-3.12,9.82-4.78,14.92-1.66,5.11-3.19,9.91-4.58,14.4-1.4,4.5-2.62,8.29-3.67,11.39-1.05,3.1-1.83,5.13-2.36,6.09-6.37,0-12.87-.17-19.51-.52-6.63-.35-13.53-.52-20.68-.52-4.19,0-8.47.07-12.83.2-4.37.13-8.53.26-12.5.39-3.97.13-7.42.28-10.34.46-2.93.18-4.95.26-6.09.26-.44-1.13-1.14-3.27-2.09-6.42-.96-3.14-2.16-6.96-3.6-11.45-1.44-4.49-3.01-9.27-4.71-14.33-1.7-5.06-3.36-10.04-4.97-14.92-1.62-4.89-3.08-9.31-4.39-13.29-1.31-3.97-2.31-7.05-3.01-9.23h63.76v7.27c0,1.62.07,3.38.2,5.3.13,1.92.24,3.93.33,6.02.09,2.09.22,4.19.39,6.28.35,3.84.74,7.77,1.18,11.78.44,4.01.92,7.83,1.44,11.45.52,3.62.92,6.57,1.18,8.84l-4.97-7.99h8.77l-4.84,8.25c.35-2.36.72-5.35,1.11-8.97.39-3.62.87-7.46,1.44-11.52.57-4.06.98-8.01,1.24-11.85.26-2.09.46-4.21.59-6.35.13-2.14.26-4.14.39-6.02.13-1.88.24-3.62.33-5.24.09-1.61.13-3.03.13-4.25v-3.01ZM587.79,209.14h83.65c0,4.8.02,9.3.07,13.48.04,4.19.13,7.99.26,11.39.13,3.4.24,6.31.33,8.71.09,2.4.13,4.17.13,5.3-3.75-.09-8.14-.15-13.16-.2-5.02-.04-10.1-.07-15.25-.07h-28.74c-5.19,0-10.26.02-15.19.07-4.93.04-9.32.11-13.16.2.17-1.13.3-2.9.39-5.3.09-2.4.17-5.26.26-8.57.09-3.32.17-7.11.26-11.39.09-4.27.13-8.81.13-13.62Z"/>
    <path class="cls-1" d="M765.57,185.32v-3.53c0-1.83-.15-3.34-.46-4.52-.31-1.18-.74-2.03-1.31-2.55-.57-.52-1.37-.79-2.42-.79-1.22,0-2.23.42-3.01,1.24-.79.83-1.4,2.18-1.83,4.06-.44,1.88-.72,4.34-.85,7.4-.13,3.06-.2,6.85-.2,11.39s.11,8.03.33,11c.22,2.97.59,5.32,1.11,7.07.52,1.75,1.26,3.03,2.23,3.86.96.83,2.27,1.24,3.93,1.24,1.57,0,2.84-.48,3.8-1.44.96-.96,1.7-2.53,2.23-4.71.52-2.18.79-5.13.79-8.84s-.04-8.31-.13-13.81h5.56c1.88,0,3.77-.07,5.69-.2,1.92-.13,3.95-.24,6.09-.33,2.14-.09,4.3-.09,6.48,0,4.71,0,9.36-.07,13.94-.2,4.58-.13,8.92-.28,13.03-.46,4.1-.17,7.72-.3,10.87-.39.43,7.94.43,14.88,0,20.81-.44,5.94-1.53,11.11-3.27,15.51-1.75,4.41-4.28,8.07-7.59,11-3.32,2.92-7.68,5.28-13.09,7.07-5.41,1.79-11.91,3.05-19.51,3.8-7.59.74-16.54,1.11-26.84,1.11-12.74,0-23.72-.77-32.92-2.29-9.21-1.53-16.84-4.21-22.91-8.05-6.07-3.84-10.56-9.21-13.48-16.1-2.93-6.89-4.39-15.66-4.39-26.31,0-8.29.89-15.34,2.68-21.14,1.79-5.8,4.56-10.58,8.31-14.33,3.75-3.75,8.55-6.7,14.4-8.84,5.85-2.14,12.85-3.6,21.01-4.39,8.16-.79,17.43-1.18,27.82-1.18,11.69,0,21.6.39,29.72,1.18,8.12.79,14.81,2.01,20.1,3.67,5.28,1.66,9.4,3.78,12.37,6.35,2.97,2.58,5.04,5.59,6.22,9.03,1.18,3.45,1.72,7.4,1.64,11.85,0,.96-.04,1.94-.13,2.95-.09,1-.13,1.94-.13,2.81-5.5-.17-11.3-.3-17.41-.39-6.11-.09-12.13-.13-18.07-.13-5.59,0-10.98.05-16.17.13-5.19.09-9.93.22-14.2.39ZM794.63,191.21h11c3.93,0,8.07-.02,12.44-.07,4.36-.04,8.81-.15,13.35-.33l-34.3,22.91h-16.43c-2.05,0-4.1.05-6.15.13-2.05.09-4.12.11-6.22.07-2.09-.04-4.1.02-6.02.2,0-.87.02-2.22.07-4.06.04-1.83.07-3.69.07-5.56v-9.3c0-1.7-.04-3.12-.13-4.25,5.85.18,11.61.26,17.28.26h15.06Z"/>
    <path class="cls-1" d="M983.28,195.92c0,7.85-.77,14.71-2.29,20.55-1.53,5.85-3.99,10.91-7.4,15.19-3.4,4.28-7.97,7.72-13.68,10.34-5.72,2.62-12.83,4.58-21.34,5.89-8.51,1.31-18.7,1.96-30.57,1.96s-21.97-.65-30.31-1.96c-8.34-1.31-15.3-3.27-20.88-5.89-5.59-2.62-9.99-6.06-13.22-10.34-3.23-4.28-5.52-9.34-6.87-15.19-1.35-5.85-2.03-12.7-2.03-20.55s.76-14.09,2.29-19.51c1.53-5.41,4.06-9.99,7.59-13.75,3.53-3.75,8.14-6.7,13.81-8.84,5.67-2.14,12.63-3.64,20.88-4.52,8.25-.87,17.91-1.31,29-1.31,13.7,0,25.33.72,34.89,2.16,9.56,1.44,17.3,3.95,23.24,7.53,5.93,3.58,10.23,8.49,12.9,14.73,2.66,6.24,3.99,14.07,3.99,23.5ZM908.4,213.07c.79,0,1.57-.24,2.36-.72.79-.48,1.37-1.37,1.77-2.68s.67-3.08.85-5.3c.17-2.22.26-5.13.26-8.71,0-3.31-.09-6-.26-8.05-.18-2.05-.46-3.64-.85-4.78-.39-1.13-.98-1.92-1.77-2.36-.79-.44-1.57-.66-2.36-.66-1.05,0-1.92.22-2.62.66-.7.44-1.24,1.22-1.64,2.36-.39,1.14-.68,2.73-.85,4.78-.18,2.05-.26,4.74-.26,8.05,0,3.58.09,6.48.26,8.71.17,2.23.46,3.99.85,5.3s.94,2.21,1.64,2.68c.7.48,1.57.72,2.62.72Z"/>
  </g>
  <g>
    <path class="cls-2" d="M65.84,240.56H1.04c.17-4.8.28-9.62.33-14.47.04-4.84.11-10.08.2-15.71.09-5.63.13-11.93.13-18.92,0-10.39-.04-19.4-.13-27.03-.09-7.64-.26-14.99-.52-22.06h86.66c7.51,0,14.14.46,19.9,1.37s10.6,2.68,14.53,5.3c3.93,2.62,6.92,6.44,8.97,11.45,2.05,5.02,3.08,11.59,3.08,19.7,0,6.46-.46,12.04-1.38,16.76s-2.58,8.71-4.97,11.98c-2.4,3.27-5.78,5.89-10.15,7.85-4.37,1.96-9.97,3.4-16.82,4.32-6.85.92-15.25,1.37-25.2,1.37h-1.77c-.83,0-1.81-.04-2.95-.13-1.13-.09-2.31-.13-3.53-.13h-7.2l.39-25.92c.61,0,1.13-.02,1.57-.07.44-.04.79-.04,1.05,0,.26.05.54.09.85.13.3.04.63.07.98.07,1.66,0,3.03-.22,4.12-.65,1.09-.44,1.94-1.11,2.55-2.03.61-.92,1.07-2.25,1.38-3.99.3-1.75.46-3.97.46-6.68,0-2.97-.13-5.32-.39-7.07-.26-1.75-.72-3.12-1.37-4.12-.66-1-1.42-1.64-2.29-1.9-.87-.26-2.09-.39-3.67-.39h-1.31c-.52,0-1.14-.02-1.83-.07-.7-.04-1.37-.04-2.03,0-.65.04-1.29.09-1.9.13-.61.05-1.18.15-1.7.33l6.15-7.07c0,8.38.04,16.34.13,23.89.09,7.55.22,14.62.39,21.21.17,6.59.41,12.59.72,18,.3,5.41.76,10.26,1.37,14.53Z"/>
    <path class="cls-2" d="M284.86,188.59c0,7.85-.77,14.71-2.29,20.55-1.53,5.85-3.99,10.91-7.4,15.19-3.4,4.28-7.97,7.72-13.68,10.34-5.72,2.62-12.83,4.58-21.34,5.89-8.51,1.31-18.7,1.96-30.57,1.96s-21.97-.65-30.31-1.96c-8.34-1.31-15.3-3.27-20.88-5.89-5.59-2.62-9.99-6.06-13.22-10.34-3.23-4.28-5.52-9.34-6.87-15.19-1.35-5.85-2.03-12.7-2.03-20.55s.76-14.09,2.29-19.51c1.53-5.41,4.06-9.99,7.59-13.75,3.53-3.75,8.14-6.7,13.81-8.84,5.67-2.14,12.63-3.64,20.88-4.52,8.25-.87,17.91-1.31,29-1.31,13.7,0,25.33.72,34.89,2.16,9.56,1.44,17.3,3.95,23.24,7.53,5.93,3.58,10.23,8.49,12.9,14.73,2.66,6.24,3.99,14.07,3.99,23.5ZM209.97,205.74c.79,0,1.57-.24,2.36-.72.79-.48,1.37-1.37,1.77-2.68s.67-3.08.85-5.3c.17-2.22.26-5.13.26-8.71,0-3.31-.09-6-.26-8.05-.18-2.05-.46-3.64-.85-4.78-.39-1.13-.98-1.92-1.77-2.36-.79-.44-1.57-.66-2.36-.66-1.05,0-1.92.22-2.62.66-.7.44-1.24,1.22-1.64,2.36-.39,1.14-.68,2.73-.85,4.78-.18,2.05-.26,4.74-.26,8.05,0,3.58.09,6.48.26,8.71.17,2.23.46,3.99.85,5.3s.94,2.21,1.64,2.68c.7.48,1.57.72,2.62.72Z"/>
    <path class="cls-2" d="M353.45,240.56h-64.8c.17-4.8.28-9.62.33-14.47.04-4.84.11-10.08.2-15.71.09-5.63.13-11.93.13-18.92,0-10.39-.04-19.4-.13-27.03-.09-7.64-.26-14.99-.52-22.06h86.66c7.51,0,14.14.46,19.9,1.37s10.6,2.68,14.53,5.3c3.93,2.62,6.92,6.44,8.97,11.45,2.05,5.02,3.08,11.59,3.08,19.7,0,6.46-.46,12.04-1.38,16.76s-2.58,8.71-4.97,11.98c-2.4,3.27-5.78,5.89-10.15,7.85-4.37,1.96-9.97,3.4-16.82,4.32-6.85.92-15.25,1.37-25.2,1.37h-1.77c-.83,0-1.81-.04-2.95-.13-1.13-.09-2.31-.13-3.53-.13h-7.2l.39-25.92c.61,0,1.13-.02,1.57-.07.44-.04.79-.04,1.05,0,.26.05.54.09.85.13.3.04.63.07.98.07,1.66,0,3.03-.22,4.12-.65,1.09-.44,1.94-1.11,2.55-2.03.61-.92,1.07-2.25,1.38-3.99.3-1.75.46-3.97.46-6.68,0-2.97-.13-5.32-.39-7.07-.26-1.75-.72-3.12-1.37-4.12-.66-1-1.42-1.64-2.29-1.9-.87-.26-2.09-.39-3.67-.39h-1.31c-.52,0-1.14-.02-1.83-.07-.7-.04-1.37-.04-2.03,0-.65.04-1.29.09-1.9.13-.61.05-1.18.15-1.7.33l6.15-7.07c0,8.38.04,16.34.13,23.89.09,7.55.22,14.62.39,21.21.17,6.59.41,12.59.72,18,.3,5.41.76,10.26,1.37,14.53Z"/>
    <path class="cls-2" d="M490.39,240.56h-64.8c.17-4.8.28-9.62.33-14.47.04-4.84.11-10.08.2-15.71.09-5.63.13-11.93.13-18.92,0-10.39-.04-19.4-.13-27.03-.09-7.64-.26-14.99-.52-22.06h86.66c7.51,0,14.14.46,19.9,1.37s10.6,2.68,14.53,5.3c3.93,2.62,6.92,6.44,8.97,11.45,2.05,5.02,3.08,11.59,3.08,19.7,0,6.46-.46,12.04-1.38,16.76s-2.58,8.71-4.97,11.98c-2.4,3.27-5.78,5.89-10.15,7.85-4.37,1.96-9.97,3.4-16.82,4.32-6.85.92-15.25,1.37-25.2,1.37h-1.77c-.83,0-1.81-.04-2.95-.13-1.13-.09-2.31-.13-3.53-.13h-7.2l.39-25.92c.61,0,1.13-.02,1.57-.07.44-.04.79-.04,1.05,0,.26.05.54.09.85.13.3.04.63.07.98.07,1.66,0,3.03-.22,4.12-.65,1.09-.44,1.94-1.11,2.55-2.03.61-.92,1.07-2.25,1.38-3.99.3-1.75.46-3.97.46-6.68,0-2.97-.13-5.32-.39-7.07-.26-1.75-.72-3.12-1.37-4.12-.66-1-1.42-1.64-2.29-1.9-.87-.26-2.09-.39-3.67-.39h-1.31c-.52,0-1.14-.02-1.83-.07-.7-.04-1.37-.04-2.03,0-.65.04-1.29.09-1.9.13-.61.05-1.18.15-1.7.33l6.15-7.07c0,8.38.04,16.34.13,23.89.09,7.55.22,14.62.39,21.21.17,6.59.41,12.59.72,18,.3,5.41.76,10.26,1.37,14.53Z"/>
    <path class="cls-2" d="M628.9,142.38h54.72c-.79,2.18-1.81,5.28-3.08,9.3-1.27,4.02-2.66,8.44-4.19,13.29-1.53,4.84-3.12,9.82-4.78,14.92-1.66,5.11-3.19,9.91-4.58,14.4-1.4,4.5-2.62,8.29-3.67,11.39-1.05,3.1-1.83,5.13-2.36,6.09-6.37,0-12.87-.17-19.51-.52-6.63-.35-13.53-.52-20.68-.52-4.19,0-8.47.07-12.83.2-4.37.13-8.53.26-12.5.39-3.97.13-7.42.28-10.34.46-2.93.18-4.95.26-6.09.26-.44-1.13-1.14-3.27-2.09-6.42-.96-3.14-2.16-6.96-3.6-11.45-1.44-4.49-3.01-9.27-4.71-14.33-1.7-5.06-3.36-10.04-4.97-14.92-1.62-4.89-3.08-9.31-4.39-13.29-1.31-3.97-2.31-7.05-3.01-9.23h63.76v7.27c0,1.62.07,3.38.2,5.3.13,1.92.24,3.93.33,6.02.09,2.09.22,4.19.39,6.28.35,3.84.74,7.77,1.18,11.78.44,4.01.92,7.83,1.44,11.45.52,3.62.92,6.57,1.18,8.84l-4.97-7.99h8.77l-4.84,8.25c.35-2.36.72-5.35,1.11-8.97.39-3.62.87-7.46,1.44-11.52.57-4.06.98-8.01,1.24-11.85.26-2.09.46-4.21.59-6.35.13-2.14.26-4.14.39-6.02.13-1.88.24-3.62.33-5.24.09-1.61.13-3.03.13-4.25v-3.01ZM578.1,201.81h83.65c0,4.8.02,9.3.07,13.48.04,4.19.13,7.99.26,11.39.13,3.4.24,6.31.33,8.71.09,2.4.13,4.17.13,5.3-3.75-.09-8.14-.15-13.16-.2-5.02-.04-10.1-.07-15.25-.07h-28.74c-5.19,0-10.26.02-15.19.07-4.93.04-9.32.11-13.16.2.17-1.13.3-2.9.39-5.3.09-2.4.17-5.26.26-8.57.09-3.32.17-7.11.26-11.39.09-4.27.13-8.81.13-13.62Z"/>
    <path class="cls-2" d="M755.89,177.99v-3.53c0-1.83-.15-3.34-.46-4.52-.31-1.18-.74-2.03-1.31-2.55-.57-.52-1.37-.79-2.42-.79-1.22,0-2.23.42-3.01,1.24-.79.83-1.4,2.18-1.83,4.06-.44,1.88-.72,4.34-.85,7.4-.13,3.06-.2,6.85-.2,11.39s.11,8.03.33,11c.22,2.97.59,5.32,1.11,7.07.52,1.75,1.26,3.03,2.23,3.86.96.83,2.27,1.24,3.93,1.24,1.57,0,2.84-.48,3.8-1.44.96-.96,1.7-2.53,2.23-4.71.52-2.18.79-5.13.79-8.84s-.04-8.31-.13-13.81h5.56c1.88,0,3.77-.07,5.69-.2,1.92-.13,3.95-.24,6.09-.33,2.14-.09,4.3-.09,6.48,0,4.71,0,9.36-.07,13.94-.2,4.58-.13,8.92-.28,13.03-.46,4.1-.17,7.72-.3,10.87-.39.43,7.94.43,14.88,0,20.81-.44,5.94-1.53,11.11-3.27,15.51-1.75,4.41-4.28,8.07-7.59,11-3.32,2.92-7.68,5.28-13.09,7.07-5.41,1.79-11.91,3.05-19.51,3.8-7.59.74-16.54,1.11-26.84,1.11-12.74,0-23.72-.77-32.92-2.29-9.21-1.53-16.84-4.21-22.91-8.05-6.07-3.84-10.56-9.21-13.48-16.1-2.93-6.89-4.39-15.66-4.39-26.31,0-8.29.89-15.34,2.68-21.14,1.79-5.8,4.56-10.58,8.31-14.33,3.75-3.75,8.55-6.7,14.4-8.84,5.85-2.14,12.85-3.6,21.01-4.39,8.16-.79,17.43-1.18,27.82-1.18,11.69,0,21.6.39,29.72,1.18,8.12.79,14.81,2.01,20.1,3.67,5.28,1.66,9.4,3.78,12.37,6.35,2.97,2.58,5.04,5.59,6.22,9.03,1.18,3.45,1.72,7.4,1.64,11.85,0,.96-.04,1.94-.13,2.95-.09,1-.13,1.94-.13,2.81-5.5-.17-11.3-.3-17.41-.39-6.11-.09-12.13-.13-18.07-.13-5.59,0-10.98.05-16.17.13-5.19.09-9.93.22-14.2.39ZM784.95,183.88h11c3.93,0,8.07-.02,12.44-.07,4.36-.04,8.81-.15,13.35-.33l-34.3,22.91h-16.43c-2.05,0-4.1.05-6.15.13-2.05.09-4.12.11-6.22.07-2.09-.04-4.1.02-6.02.2,0-.87.02-2.22.07-4.06.04-1.83.07-3.69.07-5.56v-9.3c0-1.7-.04-3.12-.13-4.25,5.85.18,11.61.26,17.28.26h15.06Z"/>
    <path class="cls-2" d="M973.6,188.59c0,7.85-.77,14.71-2.29,20.55-1.53,5.85-3.99,10.91-7.4,15.19-3.4,4.28-7.97,7.72-13.68,10.34-5.72,2.62-12.83,4.58-21.34,5.89-8.51,1.31-18.7,1.96-30.57,1.96s-21.97-.65-30.31-1.96c-8.34-1.31-15.3-3.27-20.88-5.89-5.59-2.62-9.99-6.06-13.22-10.34-3.23-4.28-5.52-9.34-6.87-15.19-1.35-5.85-2.03-12.7-2.03-20.55s.76-14.09,2.29-19.51c1.53-5.41,4.06-9.99,7.59-13.75,3.53-3.75,8.14-6.7,13.81-8.84,5.67-2.14,12.63-3.64,20.88-4.52,8.25-.87,17.91-1.31,29-1.31,13.7,0,25.33.72,34.89,2.16,9.56,1.44,17.3,3.95,23.24,7.53,5.93,3.58,10.23,8.49,12.9,14.73,2.66,6.24,3.99,14.07,3.99,23.5ZM898.71,205.74c.79,0,1.57-.24,2.36-.72.79-.48,1.37-1.37,1.77-2.68s.67-3.08.85-5.3c.17-2.22.26-5.13.26-8.71,0-3.31-.09-6-.26-8.05-.18-2.05-.46-3.64-.85-4.78-.39-1.13-.98-1.92-1.77-2.36-.79-.44-1.57-.66-2.36-.66-1.05,0-1.92.22-2.62.66-.7.44-1.24,1.22-1.64,2.36-.39,1.14-.68,2.73-.85,4.78-.18,2.05-.26,4.74-.26,8.05,0,3.58.09,6.48.26,8.71.17,2.23.46,3.99.85,5.3s.94,2.21,1.64,2.68c.7.48,1.57.72,2.62.72Z"/>
  </g>
</svg>