<?xml version="1.0" encoding="UTF-8"?>
<svg id="Layer_1" data-name="Layer 1" xmlns="http://www.w3.org/2000/svg" viewBox="0 0 732.49 299.67">
  <defs>
    <style>
      .cls-1, .cls-2, .cls-3 {
        fill: none;
      }

      .cls-4 {
        fill: #6eaa71;
      }

      .cls-2 {
        stroke: #b6d4b8;
      }

      .cls-2, .cls-3 {
        stroke-miterlimit: 10;
        stroke-width: 3px;
      }

      .cls-3 {
        stroke: #6eaa71;
      }

      .cls-5 {
        fill: #252723;
      }

      .cls-6 {
        fill: #b6d4b8;
      }
    </style>
  </defs>
  <g>
    <rect class="cls-1" x="8.06" y="48.72" width="359.52" height="261.45"/>
    <path class="cls-5" d="M76.9,110.2c0-35.38,20.3-57.42,46.98-57.42s46.4,21.46,46.4,57.42-18.56,57.42-46.4,57.42-46.98-22.62-46.98-57.42ZM148.82,110.2c0-22.62-8.99-40.02-24.94-40.02s-24.94,16.82-24.94,40.02,8.7,40.02,24.94,40.02,24.94-16.82,24.94-40.02ZM234.95,57.42h19.72l-113.97,198.65h-19.72L234.95,57.42ZM205.37,202.99c0-35.38,20.3-57.42,46.98-57.42s46.4,21.46,46.4,57.42-18.56,57.42-46.4,57.42-46.98-22.62-46.98-57.42ZM277.29,202.99c0-22.62-8.99-40.02-24.94-40.02s-24.94,16.82-24.94,40.02,8.7,40.02,24.94,40.02,24.94-16.82,24.94-40.02Z"/>
  </g>
  <g>
    <rect class="cls-1" x="364.83" y="49.36" width="359.52" height="261.45"/>
    <path class="cls-5" d="M428.6,87.2c1.54-7.05,4.16-13.29,7.83-18.71,3.67-5.41,8.5-9.71,14.5-12.91,5.99-3.19,13.44-4.78,22.33-4.78s16.58,1.55,22.47,4.64c5.9,3.09,10.63,7.25,14.21,12.47,3.58,5.22,6.09,11.36,7.54,18.42,1.45,7.06,2.17,14.55,2.17,22.48s-.82,14.84-2.46,21.89c-1.64,7.06-4.35,13.25-8.12,18.56-3.77,5.32-8.55,9.62-14.35,12.9-5.8,3.29-12.96,4.93-21.46,4.93s-16.05-1.5-22.04-4.5c-6-3-10.83-7.11-14.5-12.33-3.67-5.22-6.33-11.31-7.98-18.27-1.64-6.96-2.46-14.4-2.46-22.33s.77-15.42,2.32-22.47ZM448.75,122.87c.48,4.93,1.59,9.47,3.33,13.63,1.74,4.16,4.21,7.64,7.39,10.44,3.19,2.8,7.49,4.21,12.91,4.21s10.05-1.35,13.34-4.06c3.29-2.71,5.85-6.13,7.69-10.29,1.83-4.16,3.04-8.75,3.62-13.77.58-5.03.87-9.76.87-14.21s-.24-8.85-.72-13.78c-.48-4.93-1.59-9.47-3.33-13.63-1.74-4.16-4.21-7.64-7.39-10.44-3.19-2.8-7.59-4.21-13.2-4.21s-9.76,1.41-13.05,4.21c-3.29,2.8-5.85,6.29-7.69,10.44-1.84,4.16-3.04,8.7-3.62,13.63s-.87,9.62-.87,14.07.24,8.84.73,13.77ZM634.79,47.03l-155.73,215.47h-24.94l156.02-215.47h24.65ZM571.86,180c1.54-7.05,4.16-13.29,7.83-18.71,3.67-5.41,8.5-9.71,14.5-12.9,5.99-3.19,13.44-4.79,22.33-4.79s16.58,1.55,22.47,4.64c5.9,3.09,10.63,7.25,14.21,12.47,3.57,5.22,6.09,11.36,7.54,18.42,1.45,7.06,2.18,14.55,2.18,22.48s-.83,14.84-2.46,21.89c-1.65,7.06-4.35,13.25-8.12,18.56-3.77,5.32-8.56,9.57-14.36,12.76s-12.96,4.79-21.46,4.79-16.05-1.5-22.04-4.5c-6-3-10.83-7.06-14.5-12.18-3.67-5.12-6.33-11.17-7.97-18.12-1.65-6.96-2.46-14.4-2.46-22.33s.77-15.42,2.32-22.48ZM592.01,215.67c.48,4.93,1.59,9.48,3.33,13.63,1.74,4.16,4.21,7.64,7.39,10.44,3.19,2.8,7.49,4.21,12.91,4.21s10.05-1.35,13.34-4.06c3.29-2.71,5.85-6.14,7.69-10.3,1.83-4.15,3.04-8.75,3.62-13.77.58-5.03.87-9.76.87-14.21s-.25-8.84-.73-13.78c-.48-4.93-1.59-9.47-3.33-13.63-1.74-4.16-4.21-7.63-7.39-10.44-3.19-2.8-7.59-4.21-13.2-4.21s-9.76,1.4-13.05,4.21c-3.29,2.8-5.85,6.28-7.69,10.44-1.84,4.16-3.04,8.7-3.62,13.63-.58,4.93-.87,9.62-.87,14.07s.24,8.84.72,13.77Z"/>
  </g>
  <line class="cls-3" x1="54.37" y1="256.06" x2="321.28" y2="256.06"/>
  <line class="cls-3" x1="531.93" y1="46.04" x2="678.05" y2="46.04"/>
  <line class="cls-3" x1="411.14" y1="50.81" x2="586.95" y2="50.81"/>
  <line class="cls-3" x1="166.47" y1="57.26" x2="321.28" y2="57.26"/>
  <line class="cls-3" x1="54.37" y1="51.78" x2="211.13" y2="51.78"/>
  <line class="cls-3" x1="411.14" y1="256.06" x2="678.05" y2="256.06"/>
  <g>
    <line class="cls-3" x1="115.64" y1="251.71" x2="223.28" y2="64.43"/>
    <polygon class="cls-4" points="228.96 79.16 226.04 79.84 222.71 65.43 208.58 69.8 207.69 66.93 224.9 61.61 228.96 79.16"/>
  </g>
  <g>
    <line class="cls-2" x1="455.1" y1="251.71" x2="562.73" y2="64.43"/>
    <polygon class="cls-6" points="568.42 79.16 565.49 79.84 562.16 65.43 548.03 69.8 547.14 66.93 564.36 61.61 568.42 79.16"/>
  </g>
  <g>
    <line class="cls-3" x1="455.1" y1="251.71" x2="589.23" y2="66.52"/>
    <polygon class="cls-4" points="593.33 81.77 590.35 82.13 588.55 67.45 574.04 70.32 573.46 67.37 591.14 63.88 593.33 81.77"/>
  </g>
</svg>