<?xml version="1.0" encoding="UTF-8"?>
<svg id="Layer_1" data-name="Layer 1" xmlns="http://www.w3.org/2000/svg" viewBox="0 0 667.2 268.33">
  <defs>
    <style>
      .cls-1 {
        fill: #b64309;
      }
    </style>
  </defs>
  <g>
    <g>
      <path class="cls-1" d="M93.99,145.63c0-3.23-2.68-6.36-5.98-6.36s-5.98,3.13-5.98,6.36,2.68,5.85,5.98,5.85,5.98-2.62,5.98-5.85Z"/>
      <path class="cls-1" d="M145.6,145.37c0-3.23-2.68-5.85-5.98-5.85s-6.5,2.62-6.5,5.85,3.19,5.85,6.5,5.85,5.98-2.62,5.98-5.85Z"/>
      <path class="cls-1" d="M118.11,154.5c-2.6-.76-5.77-.59-7.7,0-1.77.54-2.86,1.78-2.49,3.33.64,2.67,2.08,4.55,4.81,4.55,4.68,0,6.61-2.51,7.41-4.58.59-1.53-.22-2.78-2.03-3.31Z"/>
    </g>
    <g>
      <path class="cls-1" d="M48.87,133.59c-2.83,16.71,3.19,33.51,14.33,46.01l1.32-5.01c-.31.05-.65.08-.98.09-.43.01-1.04-.25-.31.05-.32-.08-.21-.03.34.18,1.14.73,1.44,1.93.9,3.61-.19.35-.46.62-.8.82.18-.1.13-.08-.15.04-.39.29-.11.03.15,0-.56.06-.67.08-.35.07.32.01.21,0-.32-.06.78.26-.42-.23.09,0-.63-.3-.12-.09.12.21l1.32-5.01c.66-.1-.48,0-.68,0-.15,0-1.31-.12-.76-.03-.9-.14-1.79-.39-2.65-.7-1.4-.5-3.36-1.6-4.88-2.68-1.33-.94-2.91-2.39-4.12-3.81-.42-.5-.69-.85-1.17-1.61-.22-.36-.42-.74-.62-1.11-.07-.13-.29-.69-.08-.14-.08-.2-.15-.4-.21-.6-1.27-3.98-2-8.07-3.81-11.87-2.05-4.29-5.59-7.53-9.53-10.07-3.74-2.41-7.97-3.58-12.41-3.03-4.45.54-8.92,1.93-12.84,4.13s-7.17,5.28-8.96,9.29c-1.65,3.67-2.06,7.67-1.65,11.66.48,4.71,1.79,9.28,3.93,13.51,1.89,3.72,4.66,7.37,8.42,9.34,1.44.75,3.26.37,4.1-1.08.79-1.35.36-3.35-1.08-4.1-.31-.16-.61-.33-.9-.51-.11-.07-.94-.66-.48-.31-.66-.52-1.27-1.11-1.84-1.74-.26-.29-.52-.59-.76-.9.23.28-.32-.44-.43-.61-.54-.78-1.03-1.58-1.48-2.41-1.66-3.06-2.77-6.53-3.37-10.22-.1-.62-.05-.31-.03-.17-.03-.21-.05-.43-.08-.64-.05-.42-.08-.84-.11-1.27-.06-.92-.08-1.84-.04-2.76.02-.39.04-.78.08-1.17.02-.19.04-.38.06-.57-.07.55,0,.07.01-.03.19-.92.4-1.83.71-2.72,1.15-3.23,3.83-5.68,6.9-7.41s7.14-3.11,10.73-3.4c2.06-.17,3.27-.06,5.12.58,1.52.52,3.44,1.74,5,2.88,1.44,1.05,3.09,2.59,3.99,3.82.55.75,1.03,1.55,1.46,2.38.48.93.56,1.14.91,2.08,1.32,3.63,1.77,7.63,3.48,11.11,1.91,3.88,5.47,7.06,9.06,9.37s8.1,4,12.59,3.34c1-.15,1.84-1.18,2.1-2.1.31-1.13-.09-2.05-.77-2.92-1.84-2.34-5.95-2.66-7.87-.24-1.28,1.61-.81,3.93.97,4.97,1.66.96,3.8.56,5.57.29,2.4-.37,2.66-3.51,1.32-5.01-9.59-10.76-15.23-25.72-12.78-40.18.27-1.6-.42-3.23-2.1-3.69-1.44-.4-3.42.49-3.69,2.1h0Z"/>
      <path class="cls-1" d="M98.07,85.48c-1.38-14.78-3.59-29.52-7.53-43.85-1.97-7.15-4.36-14.18-7.24-21.01-1.28-3.04-2.93-5.64-5.65-7.58-2.55-1.81-5.46-2.39-8.53-2.55-6.79-.36-12.41,4.41-16.38,9.42s-6.57,10.4-8.26,16.34c-3.31,11.64-3.04,24.69.06,36.35,3.66,13.74,11.68,26.11,23.04,34.7v-5.18l1.64-.11,1.32.77-.07-.07.77,1.32-.25,1.94-1.08,1.08.09-.05-1.51.41-1.52-.58.61-4.71c-7.17,5.35-11.89,12.88-15.5,20.95-.66,1.48-.43,3.22,1.08,4.1,1.28.75,3.44.41,4.1-1.08,3.13-7,7.08-14.13,13.35-18.8,1.5-1.12,2.12-3.24.61-4.71-1.96-1.91-5.43-1.34-5.84,1.66s2.87,4.52,5.24,3.06c2.07-1.29,1.77-3.84,0-5.18-17.75-13.43-25.41-37.79-21.53-59.13.97-5.34,2.66-10.44,5.4-15.09,2.53-4.28,6.25-9.25,11.14-10.95,1.38-.48,2.47-.49,3.91-.41,1.23.07,1.9.11,3.17.59,1.76.67,3.4,2.26,4.42,4.25,1.5,2.93,2.57,6.18,3.67,9.27,1.16,3.26,2.23,6.55,3.19,9.87,4.27,14.66,6.67,29.78,8.09,44.96.15,1.61,1.27,3,3,3,1.51,0,3.15-1.38,3-3h0Z"/>
      <path class="cls-1" d="M211.67,190.06c1.85-1.52,3.31-3.57,4.62-5.56,1.58-2.39,2.96-4.92,4.23-7.48,2.38-4.81,4.87-10.01,5.57-15.38.92-7.04-1.29-14.29-6.04-19.55-2.05-2.27-4.64-4.02-7.59-4.88-3.41-.99-6.84-.74-10.28-.11-3.88.71-7.24,2.38-10.14,5.05-2.61,2.41-4.74,5.38-6.49,8.46-2.9,5.12-4.61,10.81-7.69,15.82-1.49,2.42-2.77,4.18-4.82,6.16-1.08,1.04-1.53,1.42-2.77,2.14-.25.14-.51.28-.76.41-.13.06-.26.13-.39.18.13-.05.48-.17-.06,0-.26.08-.52.17-.79.24-.13.03-.27.06-.4.09-.45.11.45-.03,0,.01-.27.02-.54.04-.81.03-.13,0-.84-.05-.56-.02.34.04-.11-.03-.15-.04l-.8-.11.38.05c.62.42.71.73.94,1.45.18.56-.16.41.24.13.32-.22.6-.69.85-.99.71-.85,1.4-1.72,2.07-2.6,2.22-2.89,4.16-5.98,5.77-9.25,6.2-12.55,5.88-27.45,1.24-40.44-2.27-6.37-5.52-12.1-9.74-17.37-.98-1.23-1.54-1.84-2.31-3-.2-.3-.67-1.41-.35-.47-.04-.13-.09-.25-.11-.38.08.5.1.61,0,.97.12-.49-.22.48-.13.29.05-.1.33-.53.02-.08s.07-.06.17-.16c.15-.15.3-.31.45-.46.81-.8,1.63-1.59,2.39-2.43,5.17-5.72,8.69-12.86,11.74-19.88s5.85-14.62,7.13-22.46,1.36-15.8-.22-23.6c-1.44-7.16-4.2-13.84-10.33-18.19s-13.81-4.03-19.37.7c-1.3,1.11-2.68,2.18-3.69,3.51-1.15,1.51-2.13,3.13-3.07,4.78-1.92,3.34-3.72,6.73-5.39,10.21-6.77,14.15-11.68,29.16-14.44,44.6-.69,3.88-1.25,7.78-1.7,11.7-.18,1.61,1.51,3,3,3,1.78,0,2.8-1.38,3-3l.09-.74c.2-1.61-1.52-3-3-3-1.78,0-2.8,1.38-3,3l-.09.74,3.8-2.89c-7.71-1.45-15.85-2.34-23.69-1.74-2.8.21-5.67.59-8.31,1.59-1.51.58-2.55,2.02-2.1,3.69.4,1.45,2.17,2.67,3.69,2.1,2.98-1.13,5.16-1.32,8.11-1.46,3.31-.16,6.62-.03,9.92.23,1.47.12,2.94.26,4.41.44.66.08,1.33.16,1.99.25-.83-.11.16.02.32.05.24.03.48.07.72.1,1.12.16,2.23.34,3.34.55,2.09.39,3.55-.86,3.8-2.89l.09-.74h-6l-.09.74h6c1.7-14.86,5.44-29.5,10.98-43.39,2.76-6.92,6.02-13.63,9.73-20.09.43-.75.87-1.51,1.33-2.24.23-.37.47-.74.72-1.11.12-.18.25-.36.37-.54.05-.06.49-.77.26-.46-.29.38.47-.38.48-.39.15-.12.29-.23.43-.36.28-.24.56-.49.84-.74.6-.54,1.17-1.11,1.82-1.6,1.04-.78,2.35-1.27,3.68-1.54,1.14-.23,2.58-.17,3.68.1,5.57,1.33,9.07,6.54,10.68,11.84,2.16,7.14,2.62,14.63,1.85,22.03s-2.85,14.43-5.65,21.17-6.03,13.98-10.61,19.94c-1.36,1.77-3.03,3.19-4.5,4.84-1.6,1.8-1.98,3.82-.91,6.01s3.29,4.43,4.69,6.25c1.84,2.4,3.41,5.01,4.77,7.7,5.45,10.79,7.75,24.23,4.04,35.8-.54,1.7-1.01,3.51-1.77,5.12s-1.6,3.17-2.51,4.69c-1.77,2.96-3.87,5.56-6.06,8.21-1.36,1.65-2.07,3.92-.9,5.88.42.71,1.06,1.27,1.77,1.66.4.22.81.36,1.25.46-.06-.01,1.24.18.64.09-.51-.08.62.09.51.08,2.76.38,5.49-.37,7.86-1.81,4.68-2.84,8.16-7.69,10.72-12.43,2.84-5.27,4.59-11.03,7.91-16.07,1.69-2.57,3.85-5.17,6.56-6.71s6.15-2.19,9.13-2.04c1.25.06,2.22.2,3.6.67.11.04.79.32.43.16.28.13.56.27.83.42s.54.32.8.49c.13.09.26.18.39.27.42.31-.25-.21.16.13,1.13.93,2.14,2.05,3.02,3.22-.27-.36.16.24.23.35.18.27.34.54.5.81.33.57.7,1.28.92,1.82,1.22,2.91,1.75,6.31,1.49,9.54-.19,2.31-1.03,4.57-1.85,6.73-.21.55-.43,1.1-.65,1.64-.25.6-.28.68-.62,1.46-.56,1.27-1.15,2.53-1.77,3.78-1.25,2.52-2.6,5-4.14,7.35-.33.5-.67.99-1.02,1.48-.08.11-.49.66-.36.49s-.27.34-.35.43c-.62.75-1.29,1.45-2.04,2.07-1.25,1.03-1.07,3.18,0,4.24,1.24,1.24,2.99,1.03,4.24,0h0Z"/>
    </g>
    <g>
      <path class="cls-1" d="M87.96,192.13c13.9-6.33,30.3-8.59,45.33-5.55s23.09,12.57,29.56,25.11c1.58,3.07,6.21.36,4.63-2.71-7.07-13.72-17.13-24.41-32.76-27.58-16.56-3.35-34.17-.88-49.47,6.09-3.14,1.43-.41,6.05,2.71,4.63h0Z"/>
      <path class="cls-1" d="M156.73,195.43c6.16-4.62,15.41-3.76,22.61-2.73,7.69,1.1,15.48,3.23,22.07,7.46,10.24,6.56,15,18.01,14.48,29.95-1.12,25.56-33.07,32-53.19,32.21-16.7.17-33.4.4-50.1.51-17.32.11-34.99.07-51.97-3.72-16.1-3.59-34.5-11.54-42.56-26.95-10.19-19.46,7.12-37.32,25.52-41.4,10.53-2.33,22.13-2.09,32.49.96,8.53,2.51,18.17,7.35,21.42,16.25,1.17,3.22,6.35,1.83,5.17-1.43-6.18-16.96-27.68-22.44-43.85-22.6-18.41-.18-38.94,6.35-46.67,24.64-7.1,16.82,2.72,32.82,16.34,42.62,17.14,12.34,38.94,15.63,59.54,16.6,23.7,1.11,47.58.15,71.29-.1,22.78-.23,55.9-5.38,61.32-32.51,2.75-13.77-2.42-29.03-13.59-37.61-7.65-5.87-17.17-8.75-26.61-10.12-8.42-1.22-19.18-2.09-26.41,3.32-2.73,2.04-.06,6.7,2.71,4.63h0Z"/>
    </g>
    <g>
      <path class="cls-1" d="M113.82,1.45v31.82c0,1.93,3,1.93,3,0V1.45c0-1.93-3-1.93-3,0h0Z"/>
      <path class="cls-1" d="M99.67,18.86h31.29c1.93,0,1.93-3,0-3h-31.29c-1.93,0-1.93,3,0,3h0Z"/>
      <path class="cls-1" d="M103.97,29.65c7.86-7.93,16.57-14.96,24.83-22.46,1.43-1.3-.69-3.42-2.12-2.12-8.26,7.5-16.97,14.53-24.83,22.46-1.36,1.37.76,3.5,2.12,2.12h0Z"/>
      <path class="cls-1" d="M101.88,6.59c8.36,7.78,16.4,15.88,24.76,23.66,1.41,1.31,3.54-.8,2.12-2.12-8.36-7.78-16.4-15.88-24.76-23.66-1.41-1.31-3.54.8-2.12,2.12h0Z"/>
    </g>
  </g>
  <g>
    <path class="cls-1" d="M212.13,95.39c0-18.57,13.3-32.75,35.39-32.75,12.55,0,22.08,3.51,22.08,11.54,0,4.52-3.51,7.78-8.28,7.78-4.27,0-6.78-2.76-9.29-7.78-3.76-7.65-5.52-9.29-8.91-9.29-6.02,0-12.17,5.4-12.17,19.45,0,17.82,10.04,28.98,21.83,28.98,7.78,0,14.43-3.76,19.32-10.29l1,.63c-6.27,15.06-18.95,21.71-30.74,21.71-16.56,0-30.24-11.67-30.24-29.99Z"/>
    <path class="cls-1" d="M289.81,115.6v-61.74c0-13.05-2.01-17.94-7.03-20.33v-.75c8.78-1.76,17.07-4.52,24.84-8.28h1c-.75,5.02-.75,19.32-.75,29.36v61.74c0,5.77,1.76,6.78,8.03,7.28v1.25h-34.13v-1.25c6.27-.5,8.03-1.51,8.03-7.28Z"/>
    <path class="cls-1" d="M327.45,94.77c0-19.2,14.68-32.12,33.5-32.12s32.5,12.17,32.5,30.62-14.68,32.12-33.5,32.12-32.5-12.17-32.5-30.62ZM361.96,123.13c7.03,0,11.67-8.78,11.67-24.34,0-11.42-2.76-33.88-14.68-33.88-7.03,0-11.67,8.78-11.67,24.34,0,11.42,2.76,33.88,14.68,33.88Z"/>
    <path class="cls-1" d="M412.28,105.31v-28.86c0-7.53-3.26-10.79-7.03-11.29v-1.26c6.9,0,17.32-.5,24.85-1.26h1c-.75,5.02-.75,15.81-.75,25.85v12.8c0,9.41,5.27,13.05,11.92,13.05,2.51,0,5.27-.88,7.91-2.76v-35.13c0-7.53-3.26-10.79-8.53-11.29v-1.26c8.41,0,18.82-.5,26.35-1.26h1c-.75,5.02-.75,15.81-.75,25.85v21.96c0,6.78,1,8.28,6.78,8.28v1.26c-7.28.88-15.56,2.51-24.59,5.39h-1l1-12.42c-6.15,6.4-12.55,11.92-21.83,11.92-10.04,0-16.31-6.53-16.31-19.58Z"/>
    <path class="cls-1" d="M487.32,96.9c0-20.08,14.81-33.75,33.38-33.75,2.63,0,5.4.25,8.28.75v-10.04c0-13.05-2.01-17.94-6.53-20.33v-.75c8.28-1.76,16.56-4.52,24.34-8.28h1c-.75,5.02-.75,19.32-.75,29.36v56.59c0,6.78,1,8.28,6.78,8.28v1.26c-7.28.88-15.56,2.51-24.59,5.39h-1l1-9.91c-5.14,5.52-11.79,9.41-19.2,9.41-13.3,0-22.71-12.17-22.71-27.98ZM521.83,114.84c2.39,0,4.89-.38,7.15-1.38v-37.02c0-4.77-3.51-11.04-9.79-11.04-8.28,0-12.8,11.29-12.8,23.84,0,16.44,6.78,25.6,15.43,25.6Z"/>
    <path class="cls-1" d="M257.87,207.13c-2.13,1.13-4.64,2.13-7.4,3.26h-1.26c1-5.02,1.26-15.56,1.26-25.6v-44.67c0-13.05-2.01-17.94-6.52-20.33v-.75c8.28-1.76,16.56-4.52,24.34-8.28h1c-.75,5.02-.75,19.2-.75,29.24v18.44c5.14-5.27,11.67-9.04,18.95-9.04,13.3,0,22.71,12.17,22.71,27.98,0,20.08-14.81,33.75-33.38,33.75-5.52,0-12.05-1-18.95-4.02ZM278.33,208.88c8.28,0,12.8-11.29,12.8-23.84,0-16.44-6.78-25.6-15.43-25.6-2.38,0-4.89.38-7.15,1.38v37.02c0,4.77,3.51,11.04,9.79,11.04Z"/>
    <path class="cls-1" d="M355.37,200.85c-6.53,7.03-12.42,10.54-18.82,10.54-7.53,0-12.92-5.02-12.92-12.3,0-5.77,3.26-9.91,16.81-13.93l14.81-4.39v-9.79c0-3.51-1.13-11.04-9.41-11.04-2.89,0-10.41,1.13-10.41,3.89,0,2.01,3.39,5.77,3.39,9.79,0,3.76-3.01,5.77-6.65,5.77-3.14,0-6.27-1.63-6.27-5.65,0-4.52,3.89-9.41,9.41-14.3,8.03-7.15,14.81-10.04,21.33-10.04,9.41,0,16.69,6.15,16.69,16.56v32.37c0,3.01,1.51,4.89,4.02,4.89,2.63,0,4.64-1.88,5.65-3.14l1.13.75c-2.63,4.27-7.9,10.54-17.69,10.54-9.03,0-10.79-5.77-11.04-10.54ZM348.97,201.36c2.38,0,4.27-1.26,6.27-2.89v-15.68l-7.65,2.76c-3.26,1.26-6.02,3.39-6.02,8.03,0,5.02,3.01,7.78,7.4,7.78Z"/>
    <path class="cls-1" d="M435.05,205.62l-12.3-21.58c-.63-1.13-1.38-1.63-2.39-1.63-.88,0-1.51.63-2.51,1.63v17.82c0,5.77,1.76,6.78,7.03,7.28v1.25h-32.63v-1.25c5.77-.5,7.53-1.51,7.53-7.28v-61.74c0-13.05-2.01-17.94-6.53-20.33v-.75c8.28-1.76,16.56-4.52,24.34-8.28h1c-.75,5.02-.75,19.32-.75,29.36v41.66l14.68-15.06c3.01-3.01,4.52-6.4,4.52-9.41,0-3.51-2.38-5.9-6.15-5.9v-1.25h32.63v1.25c-7.78.75-17.69,5.27-29.24,16.56l-.63.63,19.95,31.75c4.89,7.78,8.41,8.28,12.42,8.78v1.25c-7.4.25-15.18.5-22.21.5-4.02,0-6.53-1.26-8.78-5.27Z"/>
    <path class="cls-1" d="M470.69,182.28c0-18.82,12.93-33.38,31.12-33.38,15.31,0,25.6,8.41,25.85,22.71h-38.65c.38,17.19,9.79,27.98,21.83,27.98,6.78,0,13.3-3.01,18.82-10.29l1,.63c-6.02,13.8-18.57,21.71-30.37,21.71-16.06,0-29.61-11.04-29.61-29.36ZM503.19,169.61c4.52,0,5.14-1.13,5.14-5.14,0-7.28-2.26-13.3-8.03-13.3-4.39,0-10.92,4.64-11.29,18.45h14.18Z"/>
    <path class="cls-1" d="M547.99,201.86v-27.1c0-7.53-2.26-12.55-6.52-14.56v-.75c7.03-1.76,16.81-6.27,24.34-10.54h1l-1,15.43c1.51-2.51,2.63-4.39,4.26-6.65,4.77-6.65,8.91-8.78,13.43-8.78,5.77,0,9.79,3.76,9.79,9.54s-4.27,9.54-9.54,9.54-8.16-5.77-11.67-5.77c-1.88,0-3.89,1.13-6.02,4.27v35.38c0,5.77,2.13,6.78,10.04,7.28v1.25h-35.64v-1.25c5.77-.5,7.53-1.51,7.53-7.28Z"/>
    <path class="cls-1" d="M602.95,234.98c0-4.39,3.01-8.03,8.03-8.03,5.77,0,9.03,5.77,11.79,5.77s4.14-1.88,6.15-7.15l4.52-11.79-20.7-47.81c-4.77-10.92-7.78-13.55-12.55-14.56v-1.25h33.88v1.25c-7.03,1-6.4,3.89-4.52,8.41l12.68,30.87,9.16-24.09c2.89-7.53,2.01-14.18-7.28-15.18v-1.25h23.09v1.25c-4.02,1-9.29,4.89-13.43,15.81l-22.46,58.98c-3.26,8.41-7.28,18.07-16.82,18.07-7.78,0-11.54-4.52-11.54-9.28Z"/>
  </g>
</svg>